<svg width="491" height="267" xmlns="http://www.w3.org/2000/svg" xmlns:xlink="http://www.w3.org/1999/xlink" overflow="hidden"><defs><clipPath id="clip0"><rect x="0" y="0" width="491" height="267"/></clipPath></defs><g clip-path="url(#clip0)"><path d="M51.5223 11.5257 472.924 11.5258 472.924 11.8311 51.5223 11.8311ZM469.343 9.40939 473.236 11.6785 469.343 13.9476C469.274 13.99 469.178 13.9654 469.137 13.8926 469.096 13.8198 469.119 13.7263 469.192 13.6838L472.856 11.5466 472.856 11.8103 469.192 9.67309C469.119 9.63064 469.096 9.53717 469.137 9.4643 469.178 9.39148 469.274 9.36689 469.343 9.40939Z" transform="matrix(1.0001 0 0 1 14.1987 61.3688)"/><path d="M0.152659-1.12835e-07 0.152707 64.7486-0.152611 64.7486-0.152659 1.12835e-07ZM2.26913 61.1622 4.80463e-05 65.0518-2.26904 61.1622C-2.31152 61.0894-2.28692 60.996-2.2141 60.9534-2.14127 60.9108-2.04779 60.9355-2.00531 61.0084L0.131911 64.6722-0.131816 64.6722 2.0054 61.0084C2.04789 60.9355 2.14136 60.9108 2.21419 60.9534 2.28701 60.996 2.31161 61.0894 2.26913 61.1622Z" transform="matrix(1.0001 0 0 -1 65.7262 73.0659)"/><path d="M51.2933 11.4494 76.4165 11.4494" stroke="#FF0000" stroke-width="2.74786" stroke-miterlimit="8" fill="none" fill-rule="evenodd" transform="matrix(1.0001 0 0 1 14.1987 61.3688)"/><path d="M0 0 4.80815e-05 43.0684" stroke="#FF0000" stroke-width="2.74786" stroke-miterlimit="8" fill="none" fill-rule="evenodd" transform="matrix(1.0001 0 0 -1 90.6884 72.8369)"/><path d="M76.482-31.6003 425.067-31.6003" stroke="#FF0000" stroke-width="2.74786" stroke-miterlimit="8" fill="none" fill-rule="evenodd" transform="matrix(1.0001 0 0 1 14.1987 61.3688)"/><path d="M425.002 11.4494 450.125 11.4494" stroke="#FF0000" stroke-width="2.74786" stroke-miterlimit="8" fill="none" fill-rule="evenodd" transform="matrix(1.0001 0 0 1 14.1987 61.3688)"/><path d="M0 0 4.80815e-05 43.0684" stroke="#FF0000" stroke-width="2.74786" stroke-miterlimit="8" fill="none" fill-rule="evenodd" transform="matrix(1.0001 0 0 -1 439.243 72.8369)"/><path d="M51.5223 92.1297 472.924 92.1297 472.924 92.4347 51.5223 92.4347ZM469.343 90.0134 473.236 92.2822 469.343 94.5514C469.274 94.594 469.178 94.5693 469.137 94.4965 469.096 94.4237 469.119 94.3302 469.192 94.2876L472.856 92.1503 472.856 92.4141 469.192 90.2767C469.119 90.2346 469.096 90.1411 469.137 90.0683 469.178 89.9955 469.274 89.9708 469.343 90.0134Z" transform="matrix(1.0001 0 0 1 14.1987 61.3688)"/><path d="M0.152659-1.12835e-07 0.152707 64.7486-0.152611 64.7486-0.152659 1.12835e-07ZM2.26913 61.1622 4.80463e-05 65.0518-2.26904 61.1622C-2.31152 61.0894-2.28692 60.996-2.2141 60.9534-2.14127 60.9108-2.04779 60.9355-2.00531 61.0084L0.131911 64.6722-0.131816 64.6722 2.0054 61.0084C2.04789 60.9355 2.14136 60.9108 2.21419 60.9534 2.28701 60.996 2.31161 61.0894 2.26913 61.1622Z" transform="matrix(1.0001 0 0 -1 66.6423 153.67)"/><path d="M51.2933 92.0532 76.4165 92.0532" stroke="#FF0000" stroke-width="2.74786" stroke-miterlimit="8" fill="none" fill-rule="evenodd" transform="matrix(1.0001 0 0 1 14.1987 61.3688)"/><path d="M0 0 4.80815e-05 43.0684" stroke="#FF0000" stroke-width="2.74786" stroke-miterlimit="8" fill="none" fill-rule="evenodd" transform="matrix(1.0001 0 0 -1 90.6884 153.441)"/><path d="M76.482 92.0532 230.938 92.0532" stroke="#FF0000" stroke-width="2.74786" stroke-miterlimit="8" fill="none" fill-rule="evenodd" transform="matrix(1.0001 0 0 1 14.1987 61.3688)"/><path d="M381.036 92.0532 449.907 92.0532" stroke="#FF0000" stroke-width="2.74786" stroke-miterlimit="8" fill="none" fill-rule="evenodd" transform="matrix(1.0001 0 0 1 14.1987 61.3688)"/><path d="M0 0 4.80815e-05 43.0684" stroke="#FF0000" stroke-width="2.74786" stroke-miterlimit="8" fill="none" fill-rule="evenodd" transform="matrix(1.0001 0 0 -1 395.273 153.441)"/><path d="M0 0 4.80815e-05 43.0684" stroke="#FF0000" stroke-width="2.74786" stroke-miterlimit="8" fill="none" fill-rule="evenodd" transform="matrix(1.0001 0 0 -1 136.949 153.441)"/><path d="M0 0 4.80815e-05 43.0684" stroke="#FF0000" stroke-width="2.74786" stroke-miterlimit="8" fill="none" fill-rule="evenodd" transform="matrix(1.0001 0 0 -1 183.209 153.441)"/><path d="M0 0 4.80815e-05 43.0684" stroke="#FF0000" stroke-width="2.74786" stroke-miterlimit="8" fill="none" fill-rule="evenodd" transform="matrix(1.0001 0 0 -1 229.469 153.441)"/><text fill="#FF0000" font-family="DengXian,DengXian_MSFontService,sans-serif" font-weight="700" font-size="43" transform="matrix(0.458022 0 0 0.457976 326.319 136)">…</text><path d="M51.5223 182.809 472.924 182.809 472.924 183.114 51.5223 183.114ZM469.343 180.693 473.236 182.961 469.343 185.231C469.274 185.273 469.178 185.249 469.137 185.176 469.096 185.103 469.119 185.009 469.192 184.967L472.856 182.83 472.856 183.093 469.192 180.956C469.119 180.914 469.096 180.82 469.137 180.748 469.178 180.675 469.274 180.65 469.343 180.693Z" transform="matrix(1.0001 0 0 1 14.1987 61.3688)"/><path d="M0.152659-1.12835e-07 0.152707 64.7486-0.152611 64.7486-0.152659 1.12835e-07ZM2.26913 61.1622 4.80463e-05 65.0518-2.26904 61.1622C-2.31152 61.0894-2.28692 60.996-2.2141 60.9534-2.14127 60.9108-2.04779 60.9355-2.00531 61.0084L0.131911 64.6722-0.131816 64.6722 2.0054 61.0084C2.04789 60.9355 2.14136 60.9108 2.21419 60.9534 2.28701 60.996 2.31161 61.0894 2.26913 61.1622Z" transform="matrix(1.0001 0 0 -1 65.7262 244.349)"/><path d="M51.2933 182.732 76.4165 182.732" stroke="#FF0000" stroke-width="2.74786" stroke-miterlimit="8" fill="none" fill-rule="evenodd" transform="matrix(1.0001 0 0 1 14.1987 61.3688)"/><path d="M0 0 4.80815e-05 43.0684" stroke="#FF0000" stroke-width="2.74786" stroke-miterlimit="8" fill="none" fill-rule="evenodd" transform="matrix(1.0001 0 0 -1 90.6884 244.12)"/><path d="M425.002 182.732 450.125 182.732" stroke="#FF0000" stroke-width="2.74786" stroke-miterlimit="8" fill="none" fill-rule="evenodd" transform="matrix(1.0001 0 0 1 14.1987 61.3688)"/><path d="M0 0 4.80815e-05 43.0684" stroke="#FF0000" stroke-width="2.74786" stroke-miterlimit="8" fill="none" fill-rule="evenodd" transform="matrix(1.0001 0 0 -1 439.243 244.12)"/><path d="M0 0 4.80815e-05 43.0684" stroke="#FF0000" stroke-width="2.74786" stroke-miterlimit="8" fill="none" fill-rule="evenodd" transform="matrix(1.0001 0 0 -1 136.949 244.12)"/><path d="M0 0 4.80815e-05 43.0684" stroke="#FF0000" stroke-width="2.74786" stroke-miterlimit="8" fill="none" fill-rule="evenodd" transform="matrix(1.0001 0 0 -1 183.209 244.12)"/><path d="M0 0 4.80815e-05 43.0684" stroke="#FF0000" stroke-width="2.74786" stroke-miterlimit="8" fill="none" fill-rule="evenodd" transform="matrix(1.0001 0 0 -1 229.469 244.12)"/><text fill="#FF0000" font-family="DengXian,DengXian_MSFontService,sans-serif" font-weight="700" font-size="43" transform="matrix(0.458022 0 0 0.457976 326.319 227)">…</text><path d="M0 0 4.80815e-05 43.0684" stroke="#FF0000" stroke-width="2.74786" stroke-miterlimit="8" fill="none" fill-rule="evenodd" transform="matrix(1.0001 0 0 -1 133.743 244.12)"/><path d="M76.482 140.141 120.23 140.141" stroke="#FF0000" stroke-width="2.74786" stroke-miterlimit="8" fill="none" fill-rule="evenodd" transform="matrix(1.0001 0 0 1 14.1987 61.3688)"/><path d="M79.7643 144.797 116.658 144.797 116.658 145.102 79.7643 145.102ZM80.3748 146.781 76.711 144.949 80.3748 143.117ZM116.047 143.117 119.711 144.949 116.047 146.781Z" fill="#00B0F0" transform="matrix(1.0001 0 0 1 14.1987 61.3688)"/><text fill="#00B0F0" font-family="DengXian,DengXian_MSFontService,sans-serif" font-weight="400" font-size="19" transform="matrix(0.458022 0 0 0.457976 105.559 213)">0<tspan font-size="19" x="10" y="0">.</tspan><tspan font-size="19" x="14" y="0">5</tspan><tspan font-size="19" x="24" y="0">s</tspan></text><path d="M0 0 4.80815e-05 43.0684" stroke="#FF0000" stroke-width="2.74786" stroke-miterlimit="8" fill="none" fill-rule="evenodd" transform="matrix(1.0001 0 0 -1 180.003 244.12)"/><path d="M122.738 140.141 166.485 140.141" stroke="#FF0000" stroke-width="2.74786" stroke-miterlimit="8" fill="none" fill-rule="evenodd" transform="matrix(1.0001 0 0 1 14.1987 61.3688)"/><path d="M0 0 4.80815e-05 43.0684" stroke="#FF0000" stroke-width="2.74786" stroke-miterlimit="8" fill="none" fill-rule="evenodd" transform="matrix(1.0001 0 0 -1 226.263 244.12)"/><path d="M168.993 140.141 212.741 140.141" stroke="#FF0000" stroke-width="2.74786" stroke-miterlimit="8" fill="none" fill-rule="evenodd" transform="matrix(1.0001 0 0 1 14.1987 61.3688)"/><path d="M0 0 4.80815e-05 43.0684" stroke="#FF0000" stroke-width="2.74786" stroke-miterlimit="8" fill="none" fill-rule="evenodd" transform="matrix(1.0001 0 0 -1 272.523 244.12)"/><path d="M215.249 140.141 258.996 140.141" stroke="#FF0000" stroke-width="2.74786" stroke-miterlimit="8" fill="none" fill-rule="evenodd" transform="matrix(1.0001 0 0 1 14.1987 61.3688)"/><path d="M0 0 4.80815e-05 43.0684" stroke="#FF0000" stroke-width="2.74786" stroke-miterlimit="8" fill="none" fill-rule="evenodd" transform="matrix(1.0001 0 0 -1 395.273 244.12)"/><path d="M381.036 140.141 424.784 140.141" stroke="#FF0000" stroke-width="2.74786" stroke-miterlimit="8" fill="none" fill-rule="evenodd" transform="matrix(1.0001 0 0 1 14.1987 61.3688)"/><path d="M119.532 182.732 122.89 182.732" stroke="#FF0000" stroke-width="2.74786" stroke-miterlimit="8" fill="none" fill-rule="evenodd" transform="matrix(1.0001 0 0 1 14.1987 61.3688)"/><path d="M165.787 182.732 169.146 182.732" stroke="#FF0000" stroke-width="2.74786" stroke-miterlimit="8" fill="none" fill-rule="evenodd" transform="matrix(1.0001 0 0 1 14.1987 61.3688)"/><path d="M212.043 182.732 215.401 182.732" stroke="#FF0000" stroke-width="2.74786" stroke-miterlimit="8" fill="none" fill-rule="evenodd" transform="matrix(1.0001 0 0 1 14.1987 61.3688)"/><path d="M258.298 182.732 261.657 182.732" stroke="#FF0000" stroke-width="2.74786" stroke-miterlimit="8" fill="none" fill-rule="evenodd" transform="matrix(1.0001 0 0 1 14.1987 61.3688)"/><path d="M364.091 92.0532 381.259 92.0532" stroke="#FF0000" stroke-width="2.74786" stroke-miterlimit="8" fill="none" fill-rule="evenodd" transform="matrix(1.0001 0 0 1 14.1987 61.3688)"/><path d="M377.83 182.732 381.189 182.732" stroke="#FF0000" stroke-width="2.74786" stroke-miterlimit="8" fill="none" fill-rule="evenodd" transform="matrix(1.0001 0 0 1 14.1987 61.3688)"/><path d="M76.711-53.3542 76.711 205.056" stroke="#000000" stroke-width="0.305317" stroke-miterlimit="8" stroke-dasharray="1.22127 0.915952" fill="none" fill-rule="evenodd" transform="matrix(1.0001 0 0 1 14.1987 61.3688)"/><text font-family="DengXian,DengXian_MSFontService,sans-serif" font-weight="400" font-size="14" transform="matrix(0.458022 0 0 0.457976 92.9941 8)">采集开始</text><path d="M425.231-53.3542 425.231 205.056" stroke="#000000" stroke-width="0.305317" stroke-miterlimit="8" stroke-dasharray="1.22127 0.915952" fill="none" fill-rule="evenodd" transform="matrix(1.0001 0 0 1 14.1987 61.3688)"/><text font-family="DengXian,DengXian_MSFontService,sans-serif" font-weight="400" font-size="14" transform="matrix(0.458022 0 0 0.457976 441.615 8)">采集结束</text><path d="M79.7638 37.1724 422.246 37.1724 422.246 37.4778 79.7638 37.4777ZM80.3748 39.157 76.711 37.3251 80.3748 35.4932ZM421.632 35.4932 425.296 37.3251 421.632 39.157Z" fill="#00B0F0" transform="matrix(1.0001 0 0 1 14.1987 61.3688)"/><text fill="#00B0F0" font-family="DengXian,DengXian_MSFontService,sans-serif" font-weight="400" font-size="19" transform="matrix(0.458022 0 0 0.457976 260.436 106)">360<tspan font-size="19" x="29.5001" y="0">°</tspan><tspan fill="#000000" font-weight="700" font-size="19" x="-526.287" y="-135.378">转台控制器</tspan><tspan fill="#000000" font-weight="700" font-size="19" x="-519.724" y="39.3034">PandABox</tspan><tspan fill="#000000" font-weight="700" font-size="19" x="-488.923" y="224.903">探测器</tspan><tspan fill="#000000" font-weight="700" font-size="19" x="-557.257" y="248.921">(</tspan><tspan fill="#000000" font-weight="700" font-size="19" x="-551.09" y="248.921">边缘触发模式</tspan><tspan fill="#000000" font-weight="700" font-size="19" x="-439.09" y="248.921">)</tspan></text><path d="M0.118177-0.0966371 10.939 13.1362 10.7027 13.3295-0.118177 0.0966371ZM11.8525 11.6005 12.7536 15.5964 9.01617 13.9198Z" fill="#00B0F0" transform="matrix(-1.0001 0 0 1 147.185 185.709)"/><text fill="#00B0F0" font-family="DengXian,DengXian_MSFontService,sans-serif" font-weight="400" font-size="16" transform="matrix(0.458022 0 0 0.457976 151.427 184)">避免连续两张图像时间交叠<tspan font-size="16" x="0" y="17.4682">此</tspan><tspan font-size="16" x="16" y="17.4682">间隔时间应尽量小</tspan><tspan fill="#FF0000" font-size="19" x="-126.185" y="-76.4232">1</tspan><tspan fill="#FF0000" font-size="19" x="-23.554" y="-76.4232">2</tspan><tspan fill="#FF0000" font-size="19" x="78.167" y="-76.4232">3</tspan><tspan fill="#FF0000" font-size="19" x="180.064" y="-76.4232">4</tspan><tspan fill="#FF0000" font-size="19" x="541.874" y="-76.4232">720</tspan><tspan fill="#FF0000" font-size="19" x="-126.185" y="122.277">1</tspan><tspan fill="#FF0000" font-size="19" x="-23.554" y="122.277">2</tspan><tspan fill="#FF0000" font-size="19" x="78.167" y="122.277">3</tspan><tspan fill="#FF0000" font-size="19" x="180.064" y="122.277">4</tspan><tspan fill="#FF0000" font-size="19" x="541.874" y="122.277">720</tspan><tspan font-size="19" x="-126.185" y="-137.562">0</tspan><tspan font-size="19" x="-116.352" y="-137.562">°</tspan><tspan font-size="19" x="-23.554" y="-137.562">0</tspan><tspan font-size="19" x="-13.554" y="-137.562">.</tspan><tspan font-size="19" x="-9.554" y="-137.562">5</tspan><tspan font-size="19" x="0.279975" y="-137.562">°</tspan><tspan font-size="19" x="78.167" y="-137.562">1</tspan><tspan font-size="19" x="88" y="-137.562">°</tspan><tspan font-size="19" x="180.064" y="-137.562">1</tspan><tspan font-size="19" x="190.064" y="-137.562">.</tspan><tspan font-size="19" x="194.064" y="-137.562">5</tspan><tspan font-size="19" x="203.897" y="-137.562">°</tspan><tspan font-size="19" x="541.874" y="-137.562">359</tspan><tspan font-size="19" x="571.874" y="-137.562">.</tspan><tspan font-size="19" x="575.874" y="-137.562">5</tspan><tspan font-size="19" x="585.374" y="-137.562">°</tspan></text></g></svg>